<svg id="Layer_1" data-name="Layer 1" xmlns="http://www.w3.org/2000/svg" viewBox="0 0 8 8"><defs><style>.cls-1{fill:#fff;opacity:0.13;}</style></defs><rect class="cls-1" width="1" height="1"/><rect class="cls-1" x="1" y="1" width="1" height="1"/><rect class="cls-1" x="2" y="2" width="1" height="1"/><rect class="cls-1" x="3" y="3" width="1" height="1"/><rect class="cls-1" x="4" y="4" width="1" height="1"/><rect class="cls-1" x="5" y="5" width="1" height="1"/><rect class="cls-1" x="6" y="6" width="1" height="1"/><rect class="cls-1" x="7" y="7" width="1" height="1"/><rect class="cls-1" x="4" width="1" height="1"/><rect class="cls-1" x="5" y="1" width="1" height="1"/><rect class="cls-1" x="6" y="2" width="1" height="1"/><rect class="cls-1" x="7" y="3" width="1" height="1"/><rect class="cls-1" y="4" width="1" height="1"/><rect class="cls-1" x="1" y="5" width="1" height="1"/><rect class="cls-1" x="2" y="6" width="1" height="1"/><rect class="cls-1" x="3" y="7" width="1" height="1"/></svg>