<?xml version="1.0" encoding="utf-8"?>
<!-- Generator: Adobe Illustrator 24.2.1, SVG Export Plug-In . SVG Version: 6.00 Build 0)  -->
<svg version="1.1" id="Layer_1" xmlns="http://www.w3.org/2000/svg" xmlns:xlink="http://www.w3.org/1999/xlink" x="0px" y="0px"
	 viewBox="0 0 1024 1024" style="enable-background:new 0 0 1024 1024;" xml:space="preserve">
<style type="text/css">
	.st0{opacity:0.5;}
</style>
<g class="st0">
	<g>
		<path d="M512,32c64.8,0,127.7,12.7,186.8,37.7c57.2,24.2,108.5,58.8,152.6,102.9s78.7,95.4,102.9,152.6
			c25,59.2,37.7,122,37.7,186.8s-12.7,127.7-37.7,186.8c-24.2,57.2-58.8,108.5-102.9,152.6S756,930.1,698.8,954.3
			c-59.2,25-122,37.7-186.8,37.7s-127.7-12.7-186.8-37.7c-57.2-24.2-108.5-58.8-152.6-102.9S93.9,756,69.7,698.8
			C44.7,639.7,32,576.8,32,512s12.7-127.7,37.7-186.8c24.2-57.2,58.8-108.5,102.9-152.6S268,93.9,325.2,69.7
			C384.3,44.7,447.2,32,512,32 M512,0C229.2,0,0,229.2,0,512s229.2,512,512,512s512-229.2,512-512S794.8,0,512,0L512,0z"/>
	</g>
	<g>
		<circle cx="512" cy="192" r="64"/>
		<polygon points="576,864 576,416 576,384 448,384 320,384 320,416 448,416 448,864 320,864 320,896 448,896 576,896 704,896 
			704,864 		"/>
	</g>
</g>
</svg>
