<?xml version="1.0" encoding="utf-8"?>
<!-- Generator: Adobe Illustrator 24.2.1, SVG Export Plug-In . SVG Version: 6.00 Build 0)  -->
<svg version="1.1" id="Layer_1" xmlns="http://www.w3.org/2000/svg" xmlns:xlink="http://www.w3.org/1999/xlink" x="0px" y="0px"
	 viewBox="0 0 1024 1024" style="enable-background:new 0 0 1024 1024;" xml:space="preserve">
<style type="text/css">
	.st0{opacity:0.5;}
</style>
<g class="st0">
	<g>
		<path d="M554.7,585.4L454.3,685.8l-43.5,43.5L222.2,917.9c-32,32-84.1,32-116.1,0s-32-84.1,0-116.1l188.6-188.6l43.5-43.5
			l100.4-100.4c-54.7-14.6-115.5-0.6-158.4,42.4L48.1,743.8c-64.1,64.1-64.1,168,0,232.1l0,0c64.1,64.1,168,64.1,232.1,0
			l232.1-232.1C555.3,700.9,569.3,640.1,554.7,585.4z"/>
	</g>
	<path d="M975.9,48.1L975.9,48.1c-64.1-64.1-168-64.1-232.1,0L511.7,280.2c-43,43-57.1,103.8-42.5,158.6v0l100.5-100.5l65.9-65.9
		l166.2-166.2c32-32,84.1-32,116.1,0c32,32,32,84.1,0,116.1L751.7,388.4l-65.9,65.9L585.2,554.8h0c54.8,14.6,115.6,0.5,158.6-42.5
		l232.1-232.1C1040,216.1,1040,112.2,975.9,48.1z"/>
	<path d="M744.4,279.6L744.4,279.6c-16-16-42-16-58,0L280.2,685.8c-16,16-16,42,0,58l0,0c16,16,42,16,58,0l406.2-406.2
		C760.5,321.6,760.5,295.6,744.4,279.6z"/>
</g>
</svg>
