<?xml version="1.0" encoding="utf-8"?>
<!-- Generator: Adobe Illustrator 24.2.1, SVG Export Plug-In . SVG Version: 6.00 Build 0)  -->
<svg version="1.1" id="Layer_1" xmlns="http://www.w3.org/2000/svg" xmlns:xlink="http://www.w3.org/1999/xlink" x="0px" y="0px"
	 viewBox="0 0 1024 1024" style="enable-background:new 0 0 1024 1024;" xml:space="preserve">
<style type="text/css">
	.st0{enable-background:new    ;}
	.st1{clip-path:url(#SVGID_2_);enable-background:new    ;}
	.st2{fill:#1C3E85;}
	.st3{fill:#1D418A;}
	.st4{fill:#1E438F;}
	.st5{fill:#1F4694;}
	.st6{fill:#204899;}
	.st7{fill:#214A9E;}
	.st8{clip-path:url(#SVGID_4_);enable-background:new    ;}
	.st9{fill:#285BC2;}
	.st10{fill:#2759BD;}
	.st11{fill:#2656B8;}
	.st12{fill:#2554B3;}
	.st13{fill:#2452AD;}
	.st14{fill:#234FA8;}
	.st15{fill:#224DA3;}
	.st16{clip-path:url(#SVGID_6_);enable-background:new    ;}
	.st17{fill:#1B3D81;}
	.st18{fill:#2C63D3;}
	.st19{clip-path:url(#SVGID_8_);enable-background:new    ;}
	.st20{fill:#234EA6;}
	.st21{fill:#2A5FCB;}
</style>
<g>
	<g>
		<g class="st0">
			<g class="st0">
				<defs>
					<path id="SVGID_1_" class="st0" d="M761,199.1l86.4,95.3c-24.5-27-54.1-48.6-88.1-64.3C718.9,211.4,674,202,625.7,202
						c-48.3,0-97,9.4-144.7,28.1c-46.1,18-89.5,43.8-128.8,76.7l-86.4-95.3c39.3-32.9,82.7-58.7,128.8-76.7
						c47.7-18.6,96.4-28.1,144.7-28.1c48.3,0,93.3,9.4,133.7,28.1C707,150.5,736.5,172.1,761,199.1z"/>
				</defs>
				<clipPath id="SVGID_2_">
					<use xlink:href="#SVGID_1_"  style="overflow:visible;"/>
				</clipPath>
				<g class="st1">
					<path class="st2" d="M761,199.1l86.4,95.3c-24.5-27-54.1-48.6-88.1-64.3C718.9,211.4,674,202,625.7,202
						c-41.3,0-82.8,6.9-123.8,20.5l-86.4-95.3c41-13.6,82.6-20.5,123.8-20.5c48.3,0,93.3,9.4,133.7,28.1
						C707,150.5,736.5,172.1,761,199.1"/>
					<path class="st3" d="M415.5,127.2l86.4,95.3c-7,2.3-13.9,4.8-20.9,7.5c-7.7,3-15.3,6.2-22.8,9.6l-86.4-95.3
						c7.5-3.4,15.1-6.6,22.8-9.6C401.5,132.1,408.5,129.6,415.5,127.2"/>
					<path class="st4" d="M371.7,144.4l86.4,95.3c-11.5,5.2-22.7,10.9-33.8,17.1l-86.4-95.3C349,155.4,360.3,149.7,371.7,144.4"/>
					<path class="st5" d="M337.9,161.6l86.4,95.3c-9.8,5.5-19.4,11.4-28.9,17.6L309,179.2C318.5,173,328.1,167.1,337.9,161.6"/>
					<path class="st6" d="M309,179.2l86.4,95.3c-8.9,5.9-17.6,12-26.1,18.5l-86.4-95.3C291.5,191.2,300.2,185.1,309,179.2"/>
					<path class="st7" d="M282.9,197.7l86.4,95.3c-5.8,4.4-11.5,9-17.2,13.7l-86.4-95.3C271.4,206.7,277.1,202.2,282.9,197.7"/>
				</g>
			</g>
			<g class="st0">
				<defs>
					<path id="SVGID_3_" class="st0" d="M263,824.9l-86.4-95.3c-3.6-4-7.1-8.1-10.5-12.3c-26.4-32.9-44.6-71.1-54.3-113.7
						c-6.4-28.3-8.8-57.8-7.1-88.1l86.4,95.3c-1.7,30.3,0.7,59.8,7.1,88.1c9.6,42.6,27.9,80.8,54.3,113.7
						C255.8,816.8,259.4,820.9,263,824.9z"/>
				</defs>
				<clipPath id="SVGID_4_">
					<use xlink:href="#SVGID_3_"  style="overflow:visible;"/>
				</clipPath>
				<g class="st8">
					<path class="st9" d="M104.7,515.4l86.4,95.3c-1.2,22.7-0.2,45,3.1,66.7l-86.4-95.3C104.5,560.4,103.5,538.2,104.7,515.4"/>
					<path class="st10" d="M107.8,582.1l86.4,95.3c1.1,7.2,2.4,14.4,4,21.4c1.5,6.6,3.2,13.1,5.1,19.5l-86.4-95.3
						c-1.9-6.4-3.6-12.9-5.1-19.5C110.2,596.5,108.9,589.3,107.8,582.1"/>
					<path class="st11" d="M116.9,623.1l86.4,95.3c3.1,10.5,6.8,20.8,11.1,30.7L128,653.8C123.8,643.8,120.1,633.6,116.9,623.1"/>
					<path class="st12" d="M128,653.8l86.4,95.3c3.8,8.8,7.9,17.3,12.5,25.6l-86.4-95.3C135.9,671.1,131.8,662.5,128,653.8"/>
					<path class="st13" d="M140.6,679.3l86.4,95.3c4.3,7.7,9,15.3,14.1,22.6l-86.4-95.3C149.6,694.6,144.9,687.1,140.6,679.3"/>
					<path class="st14" d="M154.6,701.9l86.4,95.3c3.6,5.2,7.5,10.4,11.5,15.4c1.4,1.7,2.8,3.5,4.3,5.2l-86.4-95.3
						c-1.4-1.7-2.9-3.4-4.3-5.2C162.1,712.3,158.2,707.1,154.6,701.9"/>
					<path class="st15" d="M170.3,722.4l86.4,95.3c2.1,2.4,4.1,4.8,6.3,7.2l-86.4-95.3C174.5,727.2,172.4,724.9,170.3,722.4"/>
				</g>
			</g>
			<g class="st0">
				<defs>
					<path id="SVGID_5_" class="st0" d="M844.5,123.3l86.4,95.3c4.7,5.1,9.2,10.4,13.5,15.9c33.9,42.2,57.4,91.4,69.7,146.1
						c12.8,56.7,13.1,117,0.9,179l-86.4-95.3c12.2-62.1,11.9-122.3-0.9-179c-12.4-54.8-35.8-103.9-69.7-146.1
						C853.7,133.8,849.2,128.5,844.5,123.3z"/>
				</defs>
				<clipPath id="SVGID_6_">
					<use xlink:href="#SVGID_5_"  style="overflow:visible;"/>
				</clipPath>
				<g class="st16">
					<path class="st15" d="M844.5,123.3l86.4,95.3c2.7,3,5.4,6.1,8,9.2l-86.4-95.3C849.9,129.4,847.2,126.3,844.5,123.3"/>
					<path class="st14" d="M852.5,132.5l86.4,95.3c1.9,2.2,3.7,4.4,5.5,6.7c5.2,6.4,10.1,13,14.7,19.7l-86.4-95.3
						c-4.7-6.7-9.6-13.3-14.7-19.7C856.2,136.9,854.4,134.7,852.5,132.5"/>
					<path class="st13" d="M872.8,158.9l86.4,95.3c6.5,9.4,12.5,19,18.1,29l-86.4-95.3C885.3,177.9,879.3,168.3,872.8,158.9"/>
					<path class="st12" d="M890.8,187.9l86.4,95.3c5.9,10.6,11.3,21.6,16.1,32.9L907,220.8C902.1,209.5,896.8,198.5,890.8,187.9"/>
					<path class="st11" d="M907,220.8l86.4,95.3c5.5,12.8,10.2,25.9,14.3,39.5l-86.4-95.3C917.2,246.7,912.4,233.5,907,220.8"/>
					<path class="st10" d="M921.2,260.3l86.4,95.3c2.4,8.2,4.6,16.6,6.6,25.1c2.1,9.1,3.8,18.3,5.2,27.6L933,313
						c-1.4-9.3-3.1-18.5-5.2-27.6C925.9,276.8,923.7,268.5,921.2,260.3"/>
					<path class="st9" d="M933,313l86.4,95.3c7.4,48.5,5.9,99.3-4.3,151.4l-86.4-95.3C938.9,412.3,940.4,361.5,933,313"/>
				</g>
			</g>
			<g>
				<polygon class="st17" points="918.6,515.4 1005,610.7 191.1,610.7 104.7,515.4 				"/>
			</g>
			<g>
				<polygon class="st18" points="928.7,464.4 1015,559.7 1005,610.7 918.6,515.4 				"/>
			</g>
			<g class="st0">
				<defs>
					<path id="SVGID_7_" class="st0" d="M179.5,900.7l-86.4-95.3c31.5,34.7,69.5,62.5,113.2,82.7c52,24,109.8,36.2,171.9,36.2
						S502.9,912,564.3,888c59.3-23.2,115-56.3,165.6-98.5l86.4,95.3C765.7,927,710,960.2,650.7,983.3
						c-61.5,24-124.1,36.2-186.1,36.2s-119.9-12.2-171.9-36.2C249,963.1,211,935.4,179.5,900.7z"/>
				</defs>
				<clipPath id="SVGID_8_">
					<use xlink:href="#SVGID_7_"  style="overflow:visible;"/>
				</clipPath>
				<g class="st19">
					<path class="st7" d="M729.9,789.5l86.4,95.3c-7.2,6-14.6,11.9-22,17.6l-86.4-95.3C715.3,801.4,722.6,795.6,729.9,789.5"/>
					<path class="st6" d="M707.8,807.1l86.4,95.3c-11,8.4-22.1,16.3-33.5,23.8l-86.4-95.3C685.7,823.4,696.9,815.4,707.8,807.1"/>
					<path class="st5" d="M674.3,830.9l86.4,95.3c-12.2,8-24.6,15.6-37.2,22.7l-86.4-95.3C649.8,846.5,662.2,838.9,674.3,830.9"/>
					<path class="st4" d="M637.1,853.6l86.4,95.3c-14.2,8-28.7,15.3-43.5,22.1l-86.4-95.3C608.4,868.9,622.9,861.5,637.1,853.6"/>
					<path class="st3" d="M593.6,875.6l86.4,95.3c-9.7,4.4-19.4,8.5-29.3,12.4c-8.9,3.5-17.9,6.7-26.9,9.7l-86.4-95.3
						c9-3,18-6.2,26.9-9.7C574.2,884.2,584,880,593.6,875.6"/>
					<path class="st2" d="M537.4,897.8l86.4,95.3c-52.8,17.6-106.2,26.4-159.2,26.4c-62.1,0-119.9-12.2-171.9-36.2
						c-43.7-20.2-81.7-47.9-113.2-82.7l-86.4-95.3c31.5,34.7,69.5,62.5,113.2,82.7c52,24,109.8,36.2,171.9,36.2
						C431.2,924.2,484.7,915.3,537.4,897.8"/>
				</g>
			</g>
			<g>
				<polygon class="st20" points="671.9,717.3 758.2,812.6 816.3,884.8 729.9,789.5 				"/>
			</g>
			<g>
				<path class="st21" d="M559.4,4.5c62.1,0,119.9,12.2,171.9,36.2C781.5,63.8,824.2,97,858,139.2c33.9,42.2,57.4,91.4,69.7,146.1
					c12.8,56.7,13.1,117,0.9,179l-10.1,51.1H104.7c-1.7,30.3,0.7,59.8,7.1,88.1c9.6,42.6,27.9,80.8,54.3,113.7
					c26.4,32.9,59.6,58.7,98.6,76.7C305.1,812.6,350,822,398.3,822c48.3,0,97-9.4,144.7-28.1c46.1-18,89.5-43.8,128.8-76.7l58,72.3
					c-50.5,42.2-106.2,75.4-165.6,98.5c-61.5,24-124.1,36.2-186.1,36.2S258.3,912,206.3,888c-50.2-23.2-92.8-56.3-126.7-98.5
					c-33.9-42.2-57.4-91.4-69.7-146.1C-3,586.6-3.3,526.4,9,464.4L19,413.3h813.9c1.7-30.3-0.7-59.8-7.1-88.1
					c-9.6-42.6-27.9-80.8-54.3-113.7c-26.4-32.9-59.6-58.7-98.6-76.7c-40.4-18.6-85.4-28.1-133.7-28.1c-48.3,0-97,9.4-144.7,28.1
					c-46.1,18-89.5,43.8-128.8,76.7l-58-72.3C258.3,97,314,63.8,373.3,40.7C434.8,16.7,497.4,4.5,559.4,4.5z"/>
			</g>
		</g>
	</g>
</g>
</svg>
