<?xml version="1.0" encoding="utf-8"?>
<!-- Generator: Adobe Illustrator 24.2.1, SVG Export Plug-In . SVG Version: 6.00 Build 0)  -->
<svg version="1.1" id="Layer_1" xmlns="http://www.w3.org/2000/svg" xmlns:xlink="http://www.w3.org/1999/xlink" x="0px" y="0px"
	 viewBox="0 0 1024 1024" style="enable-background:new 0 0 1024 1024;" xml:space="preserve">
<style type="text/css">
	.st0{opacity:0.25;}
	.st1{fill:#3578FF;}
</style>
<g class="st0">
	<g>
		<circle class="st1" cx="512" cy="512" r="146.3"/>
		<g>
			<path class="st1" d="M512,348.1c90.5,0,163.9,73.4,163.9,163.9S602.5,675.9,512,675.9S348.1,602.5,348.1,512
				S421.5,348.1,512,348.1 M512,275c-32,0-63,6.3-92.3,18.7c-28.2,11.9-53.6,29-75.3,50.8c-21.7,21.7-38.8,47.1-50.8,75.3
				C281.3,449,275,480,275,512s6.3,63,18.7,92.3c11.9,28.2,29,53.6,50.8,75.3c21.7,21.7,47.1,38.8,75.3,50.8
				C449,742.7,480,749,512,749c32,0,63-6.3,92.3-18.7c28.2-11.9,53.6-29,75.3-50.8c21.7-21.7,38.8-47.1,50.8-75.3
				C742.7,575,749,544,749,512c0-32-6.3-63-18.7-92.3c-11.9-28.2-29-53.6-50.8-75.3c-21.7-21.7-47.1-38.8-75.3-50.8
				C575,281.3,544,275,512,275L512,275z"/>
		</g>
		<g>
			<path class="st1" d="M512,237.1c151.9,0,275,123.1,275,275c0,151.9-123.1,275-275,275c-151.9,0-275-123.1-275-275
				C237.1,360.1,360.1,237.1,512,237.1 M512,182.2c-44.5,0-87.7,8.7-128.4,25.9c-39.3,16.6-74.5,40.4-104.8,70.7
				c-30.3,30.3-54,65.5-70.7,104.8c-17.2,40.7-25.9,83.9-25.9,128.4c0,44.5,8.7,87.7,25.9,128.4c16.6,39.3,40.4,74.5,70.7,104.8
				c30.3,30.3,65.5,54,104.8,70.7c40.7,17.2,83.9,25.9,128.4,25.9c44.5,0,87.7-8.7,128.4-25.9c39.3-16.6,74.5-40.4,104.8-70.7
				c30.3-30.3,54-65.5,70.7-104.8c17.2-40.7,25.9-83.9,25.9-128.4c0-44.5-8.7-87.7-25.9-128.4c-16.6-39.3-40.4-74.5-70.7-104.8
				c-30.3-30.3-65.5-54-104.8-70.7C599.7,190.9,556.5,182.2,512,182.2L512,182.2z"/>
		</g>
		<g>
			<path class="st1" d="M512,127.8c212.2,0,384.2,172,384.2,384.2S724.2,896.2,512,896.2S127.8,724.2,127.8,512
				S299.8,127.8,512,127.8 M512,91.2c-56.8,0-111.9,11.1-163.8,33.1c-50.1,21.2-95.1,51.5-133.7,90.2s-69,83.6-90.2,133.7
				c-22,51.9-33.1,107-33.1,163.8s11.1,111.9,33.1,163.8c21.2,50.1,51.5,95.1,90.2,133.7c38.6,38.6,83.6,69,133.7,90.2
				c51.9,22,107,33.1,163.8,33.1s111.9-11.1,163.8-33.1c50.1-21.2,95.1-51.5,133.7-90.2c38.6-38.6,69-83.6,90.2-133.7
				c22-51.9,33.1-107,33.1-163.8s-11.1-111.9-33.1-163.8c-21.2-50.1-51.5-95.1-90.2-133.7c-38.6-38.6-83.6-69-133.7-90.2
				C623.9,102.3,568.8,91.2,512,91.2L512,91.2z"/>
		</g>
		<g>
			<path class="st1" d="M512,18.5c272.6,0,493.5,220.9,493.5,493.5S784.6,1005.5,512,1005.5S18.5,784.6,18.5,512
				S239.4,18.5,512,18.5 M512,0.2c-69.1,0-136.1,13.5-199.2,40.2c-60.9,25.8-115.7,62.7-162.7,109.7S66.2,251.8,40.4,312.8
				C13.8,375.9,0.2,442.9,0.2,512s13.5,136.1,40.2,199.2c25.8,60.9,62.7,115.7,109.7,162.7c47,47,101.7,83.9,162.7,109.7
				c63.1,26.7,130.1,40.2,199.2,40.2s136.1-13.5,199.2-40.2c60.9-25.8,115.7-62.7,162.7-109.7c47-47,83.9-101.7,109.7-162.7
				c26.7-63.1,40.2-130.1,40.2-199.2s-13.5-136.1-40.2-199.2c-25.8-60.9-62.7-115.7-109.7-162.7c-47-47-101.7-83.9-162.7-109.7
				C648.1,13.8,581.1,0.2,512,0.2L512,0.2z"/>
		</g>
	</g>
</g>
</svg>
